<svg version="1.1" id="Layer_1" xmlns="http://www.w3.org/2000/svg" xmlns:xlink="http://www.w3.org/1999/xlink" x="0px" y="0px"
	 width="100%" viewBox="0 0 1500 1135" enable-background="new 0 0 1500 1135" xml:space="preserve">
<path fill="#000000" opacity="1.000000" stroke="none" 
	d="
M1.000000,408.000000 
	C1.000000,272.000000 1.000000,136.500000 1.000000,1.000000 
	C501.000000,1.000000 1001.000000,1.000000 1501.000000,1.000000 
	C1501.000000,379.333344 1501.000000,757.666687 1501.000000,1136.000000 
	C1001.000000,1136.000000 501.000000,1136.000000 1.000000,1136.000000 
	C1.000000,893.500000 1.000000,651.000000 1.000000,408.000000 
M57.825378,472.319794 
	C56.975636,473.344971 56.110241,474.357666 55.278473,475.397247 
	C34.543274,501.312134 25.033745,530.577759 28.886518,563.831970 
	C30.907879,581.278870 36.356941,597.547913 45.260483,611.475952 
	C37.924557,620.402344 30.214487,628.361084 24.138680,637.416443 
	C-6.822209,683.560425 0.628094,748.552673 40.893341,784.322693 
	C68.331123,808.697266 101.245705,815.668213 136.771744,812.370117 
	C149.236816,811.212952 161.530975,808.214661 174.079102,806.026428 
	C173.710831,810.878784 173.201736,816.168457 172.924438,821.470276 
	C171.115860,856.049988 200.799164,880.456909 234.364319,872.040527 
	C247.929016,868.639099 261.530609,865.378784 275.048096,861.800049 
	C277.978699,861.024170 279.428741,861.465576 281.037140,864.097107 
	C285.637115,871.623108 290.471313,879.014160 295.429474,886.311462 
	C327.374176,933.326843 364.351013,975.892517 409.394867,1010.768494 
	C517.739624,1094.656372 640.888062,1132.834106 777.526245,1127.386841 
	C851.618469,1124.432983 922.509094,1107.134521 989.400635,1075.040039 
	C1107.226929,1018.507324 1195.262451,931.427063 1253.467896,814.400085 
	C1279.494995,762.070557 1295.932007,706.695251 1304.029907,648.861633 
	C1306.196045,633.390503 1307.538330,617.803955 1309.284424,602.038757 
	C1310.080566,601.810669 1311.011108,601.489075 1311.966064,601.278625 
	C1336.676270,595.833557 1361.345337,590.191467 1386.110840,585.010620 
	C1428.611084,576.119812 1457.656616,551.350708 1474.064209,511.395782 
	C1484.977051,484.821259 1489.913818,456.692841 1494.275024,428.590698 
	C1497.605225,407.130951 1477.000000,388.859039 1455.325562,392.489777 
	C1449.446777,393.474548 1443.635864,394.863495 1437.677368,396.090881 
	C1436.784424,389.372620 1436.162476,382.945923 1435.050659,376.605103 
	C1425.838135,324.064880 1378.759644,292.925781 1326.761353,304.807831 
	C1303.389404,310.148529 1279.963867,315.254761 1256.592163,320.596466 
	C1253.264771,321.356934 1251.574951,321.010498 1249.601807,317.594910 
	C1237.203003,296.131683 1225.494019,274.149567 1211.503784,253.746994 
	C1153.452393,169.088409 1077.397705,105.346733 984.214966,62.375591 
	C910.093262,28.194490 832.040100,11.584694 750.349243,11.708606 
	C687.139954,11.804484 625.683350,21.934242 566.084534,42.862518 
	C486.707062,70.736145 417.336151,114.670403 357.778778,174.063919 
	C293.403229,238.262405 246.994400,313.500397 219.284576,400.166595 
	C216.770966,408.028259 214.541885,415.980865 212.185883,423.873779 
	C161.791550,409.789520 95.363884,428.742798 57.825378,472.319794 
z"/>
<path fill="#F7F7F7" opacity="1.000000" stroke="none" 
	d="
M58.048885,472.044739 
	C95.363884,428.742798 161.791550,409.789520 212.185883,423.873779 
	C214.541885,415.980865 216.770966,408.028259 219.284576,400.166595 
	C246.994400,313.500397 293.403229,238.262405 357.778778,174.063919 
	C417.336151,114.670403 486.707062,70.736145 566.084534,42.862518 
	C625.683350,21.934242 687.139954,11.804484 750.349243,11.708606 
	C832.040100,11.584694 910.093262,28.194490 984.214966,62.375591 
	C1077.397705,105.346733 1153.452393,169.088409 1211.503784,253.746994 
	C1225.494019,274.149567 1237.203003,296.131683 1249.601807,317.594910 
	C1251.574951,321.010498 1253.264771,321.356934 1256.592163,320.596466 
	C1279.963867,315.254761 1303.389404,310.148529 1326.761353,304.807831 
	C1378.759644,292.925781 1425.838135,324.064880 1435.050659,376.605103 
	C1436.162476,382.945923 1436.784424,389.372620 1437.677368,396.090881 
	C1443.635864,394.863495 1449.446777,393.474548 1455.325562,392.489777 
	C1477.000000,388.859039 1497.605225,407.130951 1494.275024,428.590698 
	C1489.913818,456.692841 1484.977051,484.821259 1474.064209,511.395782 
	C1457.656616,551.350708 1428.611084,576.119812 1386.110840,585.010620 
	C1361.345337,590.191467 1336.676270,595.833557 1311.966064,601.278625 
	C1311.011108,601.489075 1310.080566,601.810669 1309.284424,602.038757 
	C1307.538330,617.803955 1306.196045,633.390503 1304.029907,648.861633 
	C1295.932007,706.695251 1279.494995,762.070557 1253.467896,814.400085 
	C1195.262451,931.427063 1107.226929,1018.507324 989.400635,1075.040039 
	C922.509094,1107.134521 851.618469,1124.432983 777.526245,1127.386841 
	C640.888062,1132.834106 517.739624,1094.656372 409.394867,1010.768494 
	C364.351013,975.892517 327.374176,933.326843 295.429474,886.311462 
	C290.471313,879.014160 285.637115,871.623108 281.037140,864.097107 
	C279.428741,861.465576 277.978699,861.024170 275.048096,861.800049 
	C261.530609,865.378784 247.929016,868.639099 234.364319,872.040527 
	C200.799164,880.456909 171.115860,856.049988 172.924438,821.470276 
	C173.201736,816.168457 173.710831,810.878784 174.079102,806.026428 
	C161.530975,808.214661 149.236816,811.212952 136.771744,812.370117 
	C101.245705,815.668213 68.331123,808.697266 40.893341,784.322693 
	C0.628094,748.552673 -6.822209,683.560425 24.138680,637.416443 
	C30.214487,628.361084 37.924557,620.402344 45.260483,611.475952 
	C36.356941,597.547913 30.907879,581.278870 28.886518,563.831970 
	C25.033745,530.577759 34.543274,501.312134 55.278473,475.397247 
	C56.110241,474.357666 56.975636,473.344971 58.048885,472.044739 
M1394.270630,571.949951 
	C1400.025513,569.790527 1405.958862,568.011353 1411.505005,565.407471 
	C1438.903442,552.543945 1455.486328,530.214783 1466.027954,502.615479 
	C1474.699463,479.912689 1478.328613,456.002991 1483.137085,432.375549 
	C1487.038452,413.205200 1473.068970,399.584656 1453.886230,403.667694 
	C1445.019897,405.554901 1436.135498,407.357544 1427.557861,409.136566 
	C1426.674683,399.208496 1426.305298,389.714355 1424.915527,380.372009 
	C1419.350220,342.960144 1393.350220,317.895386 1356.045532,313.402435 
	C1341.960205,311.705994 1328.635376,315.428528 1315.157471,318.524506 
	C1292.153442,323.808716 1269.082031,328.798859 1245.969482,333.927917 
	C1195.039551,229.820419 1119.941406,148.787354 1019.222107,92.307961 
	C918.506470,35.830704 810.217651,13.666841 695.347107,25.114651 
	C597.438782,34.872032 508.349823,68.715019 429.139587,127.118202 
	C322.548187,205.710068 252.762680,309.543640 219.592758,437.478363 
	C212.847717,435.608185 206.402481,433.033997 199.727264,432.095215 
	C147.961838,424.815186 103.401817,439.680359 67.563538,477.767181 
	C46.435989,500.220306 36.565449,527.575073 39.039436,558.744812 
	C40.673717,579.335083 47.754559,597.940002 60.482536,614.460327 
	C59.771503,615.112427 59.214657,615.716492 58.568768,616.202026 
	C34.094498,634.601318 19.541794,659.099304 16.639336,689.422302 
	C12.686207,730.722107 26.446369,764.742554 62.774036,787.047119 
	C90.490433,804.064453 121.010521,805.649414 152.141830,799.396240 
	C163.490723,797.116638 174.550385,793.397278 186.093491,790.238586 
	C185.309433,800.025024 184.616455,810.095520 183.675964,820.142883 
	C181.038406,848.319824 204.465225,868.540649 231.873383,861.670654 
	C247.529037,857.746460 263.242615,854.035706 278.809998,849.788513 
	C283.077515,848.624207 284.862610,849.828064 286.975647,853.302490 
	C317.993530,904.304871 354.726898,950.686951 400.359161,989.410034 
	C482.297760,1058.942383 577.059387,1099.614014 683.540588,1113.156616 
	C747.311646,1121.267578 810.675842,1118.387329 873.213867,1103.657837 
	C1002.726990,1073.153564 1108.321899,1005.047546 1188.915161,899.140686 
	C1250.456909,818.269287 1285.840332,726.767456 1296.168823,625.638977 
	C1297.265137,614.904114 1297.961182,604.128418 1298.854492,593.231506 
	C1300.769165,592.806763 1302.543457,592.415161 1304.316895,592.019409 
	C1334.038452,585.388611 1363.760010,578.757263 1394.270630,571.949951 
z"/>
<path fill="#010101" opacity="1.000000" stroke="none" 
	d="
M1393.875977,572.037964 
	C1363.760010,578.757263 1334.038452,585.388611 1304.316895,592.019409 
	C1302.543457,592.415161 1300.769165,592.806763 1298.854492,593.231506 
	C1297.961182,604.128418 1297.265137,614.904114 1296.168823,625.638977 
	C1285.840332,726.767456 1250.456909,818.269287 1188.915161,899.140686 
	C1108.321899,1005.047546 1002.726990,1073.153564 873.213867,1103.657837 
	C810.675842,1118.387329 747.311646,1121.267578 683.540588,1113.156616 
	C577.059387,1099.614014 482.297760,1058.942383 400.359161,989.410034 
	C354.726898,950.686951 317.993530,904.304871 286.975647,853.302490 
	C284.862610,849.828064 283.077515,848.624207 278.809998,849.788513 
	C263.242615,854.035706 247.529037,857.746460 231.873383,861.670654 
	C204.465225,868.540649 181.038406,848.319824 183.675964,820.142883 
	C184.616455,810.095520 185.309433,800.025024 186.093491,790.238586 
	C174.550385,793.397278 163.490723,797.116638 152.141830,799.396240 
	C121.010521,805.649414 90.490433,804.064453 62.774036,787.047119 
	C26.446369,764.742554 12.686207,730.722107 16.639336,689.422302 
	C19.541794,659.099304 34.094498,634.601318 58.568768,616.202026 
	C59.214657,615.716492 59.771503,615.112427 60.482536,614.460327 
	C47.754559,597.940002 40.673717,579.335083 39.039436,558.744812 
	C36.565449,527.575073 46.435989,500.220306 67.563538,477.767181 
	C103.401817,439.680359 147.961838,424.815186 199.727264,432.095215 
	C206.402481,433.033997 212.847717,435.608185 219.592758,437.478363 
	C252.762680,309.543640 322.548187,205.710068 429.139587,127.118202 
	C508.349823,68.715019 597.438782,34.872032 695.347107,25.114651 
	C810.217651,13.666841 918.506470,35.830704 1019.222107,92.307961 
	C1119.941406,148.787354 1195.039551,229.820419 1245.969482,333.927917 
	C1269.082031,328.798859 1292.153442,323.808716 1315.157471,318.524506 
	C1328.635376,315.428528 1341.960205,311.705994 1356.045532,313.402435 
	C1393.350220,317.895386 1419.350220,342.960144 1424.915527,380.372009 
	C1426.305298,389.714355 1426.674683,399.208496 1427.557861,409.136566 
	C1436.135498,407.357544 1445.019897,405.554901 1453.886230,403.667694 
	C1473.068970,399.584656 1487.038452,413.205200 1483.137085,432.375549 
	C1478.328613,456.002991 1474.699463,479.912689 1466.027954,502.615479 
	C1455.486328,530.214783 1438.903442,552.543945 1411.505005,565.407471 
	C1405.958862,568.011353 1400.025513,569.790527 1393.875977,572.037964 
M1165.265259,535.332520 
	C1159.711548,533.807007 1156.377930,529.754822 1155.121582,524.594910 
	C1153.016602,515.949524 1151.699707,507.112274 1150.039673,498.294861 
	C1153.024048,497.275879 1154.898193,496.646881 1156.764893,495.996918 
	C1176.381104,489.166687 1193.135376,478.086853 1206.118164,461.802216 
	C1218.799316,445.895905 1226.021484,428.129578 1223.161377,407.246094 
	C1221.337891,393.932861 1215.062744,384.566956 1201.136108,380.743896 
	C1171.049194,308.157166 1126.131958,246.273117 1066.187012,195.547470 
	C982.668945,124.874016 885.959961,86.634163 776.820984,80.302269 
	C738.140747,78.058174 699.604553,80.558128 661.454285,87.868240 
	C558.999207,107.500015 471.493988,154.851913 399.242004,230.005493 
	C338.315491,293.378815 297.833160,368.125946 277.217834,453.578705 
	C270.727020,480.483765 266.573273,507.769348 264.467957,535.799194 
	C260.594482,536.641296 256.721008,537.483398 252.635468,538.371582 
	C244.857758,631.874146 237.100830,725.126831 229.298508,818.925232 
	C246.810806,814.443604 263.770020,810.103455 280.612396,805.793213 
	C283.292999,774.009827 285.919983,742.862122 288.610046,710.966248 
	C295.265717,717.177734 302.673981,718.730957 310.532684,717.958313 
	C334.079529,715.643311 354.226501,706.596924 368.820007,687.285522 
	C378.578674,674.372009 385.560089,659.987305 388.937866,644.165039 
	C395.676056,612.602112 396.507233,581.134583 386.363892,550.187012 
	C394.044495,558.006165 399.480286,567.118103 402.328430,578.751831 
	C401.327637,591.018005 400.174164,603.274170 399.361908,615.552795 
	C398.147186,633.914856 394.849670,652.276672 398.456665,671.240356 
	C391.527161,689.178772 383.082947,706.480286 366.703064,717.485107 
	C346.853210,730.821289 325.695862,740.301147 301.292877,728.086365 
	C300.971680,731.181946 300.591431,734.789307 300.227386,738.398376 
	C300.143829,739.226562 300.004608,740.070801 300.081329,740.889771 
	C300.493073,745.283875 299.941040,750.099426 301.567719,753.999451 
	C332.484070,828.122803 378.771362,891.120056 440.891479,941.944336 
	C533.074219,1017.364990 639.006287,1054.503418 758.257935,1053.339966 
	C797.920105,1052.953003 836.920166,1047.738892 875.195557,1037.495728 
	C970.501404,1011.989990 1050.927734,962.225525 1116.329712,888.381592 
	C1167.825806,830.238586 1203.021729,763.321106 1222.651978,688.224609 
	C1230.118408,659.661255 1234.810547,630.579895 1236.714844,601.133179 
	C1237.656006,586.578613 1240.834229,571.548401 1232.872681,557.818542 
	C1249.585327,554.242126 1266.297852,550.665710 1282.879395,547.117371 
	C1283.052246,546.140381 1283.177246,545.659546 1283.218018,545.171631 
	C1286.170532,509.807465 1289.192627,474.448853 1292.019043,439.074615 
	C1292.945679,427.478729 1295.227173,416.336182 1300.989502,406.114197 
	C1304.560181,399.779999 1309.405273,394.966797 1316.870117,393.487305 
	C1322.034424,392.463745 1326.259766,394.214386 1328.588135,398.886993 
	C1329.827393,401.373627 1331.095947,404.242004 1331.041016,406.911102 
	C1330.740112,421.526733 1330.114136,436.137695 1329.444092,450.743103 
	C1328.704468,466.860596 1326.528076,483.029297 1327.272705,499.069092 
	C1328.277100,520.704407 1343.824097,533.040710 1365.316650,531.209656 
	C1389.429077,529.155396 1406.921387,516.464233 1417.758667,495.477264 
	C1423.263672,484.816772 1426.157837,472.795135 1430.066406,461.332245 
	C1431.037598,458.483917 1431.364746,455.416046 1432.049316,452.156555 
	C1428.161255,452.942963 1425.083984,453.730225 1421.957642,454.153839 
	C1418.440430,454.630371 1416.796997,456.200867 1415.732300,459.861877 
	C1413.793457,466.529541 1411.216553,473.092590 1408.160156,479.334167 
	C1404.191528,487.438965 1397.108521,491.508240 1388.177002,492.341064 
	C1381.277954,492.984344 1377.346191,490.478546 1375.881104,483.565002 
	C1374.962280,479.229065 1374.610107,474.603821 1374.989136,470.193054 
	C1376.243896,455.593353 1378.436768,441.062256 1379.334229,426.447418 
	C1380.178223,412.703369 1381.027710,398.773132 1379.728882,385.129059 
	C1377.920898,366.136810 1365.542114,355.774567 1347.357910,355.961945 
	C1327.892822,356.162537 1312.502075,364.676178 1300.537964,379.774231 
	C1299.491455,381.094788 1298.476562,382.440308 1296.701416,384.740234 
	C1297.212036,377.901459 1297.618042,372.463593 1298.056396,366.592438 
	C1282.251465,369.911560 1266.983154,373.221466 1251.661133,376.259521 
	C1248.043091,376.976959 1246.509644,378.321533 1246.207031,382.240723 
	C1243.565552,416.459808 1240.624756,450.655731 1237.946777,484.872162 
	C1237.592041,489.405396 1236.531982,493.322693 1232.930908,495.576569 
	C1231.181519,485.809875 1229.432129,476.043152 1227.465698,465.064850 
	C1212.501831,489.229828 1192.264893,504.242767 1166.851562,512.431030 
	C1164.189941,513.288635 1163.572998,514.637085 1163.887085,517.114380 
	C1164.658081,523.194763 1165.316040,529.289490 1165.265259,535.332520 
M103.218674,704.998657 
	C99.046318,677.452332 114.938286,664.780457 138.425278,657.960571 
	C133.994446,645.798828 122.456024,639.423767 108.570168,641.441528 
	C85.887566,644.737732 71.849167,658.424011 64.590408,679.380859 
	C52.912548,713.096191 70.634529,745.422180 105.183228,752.262024 
	C115.580200,754.320374 126.856995,754.219604 137.410400,752.772217 
	C168.433868,748.517395 194.835220,734.945312 214.275955,709.792053 
	C230.485123,688.820007 235.723221,665.302917 227.805038,639.655029 
	C222.353470,621.996826 210.602615,608.671509 196.422348,597.361938 
	C182.362885,586.148682 168.032700,575.270264 154.122253,563.877502 
	C149.404343,560.013489 144.960754,555.475647 141.493698,550.480896 
	C125.133926,526.912598 136.644409,495.925751 163.435379,490.665802 
	C179.292221,487.552582 190.351486,496.252594 191.110153,512.359253 
	C191.645569,523.726074 187.737045,533.504883 180.455826,541.982117 
	C194.362396,554.907532 216.567108,548.903015 223.996979,530.509338 
	C232.333160,509.871979 221.930466,485.505402 201.143829,477.017700 
	C188.524994,471.865112 175.468689,471.847473 162.300629,473.977875 
	C138.057144,477.900146 116.713036,487.605042 100.421638,506.506744 
	C86.537773,522.615112 81.021004,541.102722 86.074570,562.238586 
	C89.487854,576.514160 98.204056,587.327393 108.859581,596.673767 
	C121.628456,607.873901 135.069107,618.317017 147.677246,629.688416 
	C155.799011,637.013611 164.200302,644.562195 170.303986,653.494995 
	C191.502838,684.519592 173.684387,723.293213 136.543060,728.347900 
	C120.085869,730.587585 107.858032,722.267883 103.218674,704.998657 
z"/>
<path fill="#BF171C" opacity="1.000000" stroke="none" 
	d="
M265.106934,535.435120 
	C266.573273,507.769348 270.727020,480.483765 277.217834,453.578705 
	C297.833160,368.125946 338.315491,293.378815 399.242004,230.005493 
	C471.493988,154.851913 558.999207,107.500015 661.454285,87.868240 
	C699.604553,80.558128 738.140747,78.058174 776.820984,80.302269 
	C885.959961,86.634163 982.668945,124.874016 1066.187012,195.547470 
	C1126.131958,246.273117 1171.049194,308.157166 1200.695801,381.160889 
	C1191.063477,382.560333 1181.607910,382.491577 1172.728516,384.719482 
	C1144.496460,391.803101 1126.393188,411.106018 1114.296143,436.487488 
	C1109.682007,446.168854 1106.682007,456.619537 1102.871338,466.198883 
	C1102.858521,459.425018 1103.351318,453.139984 1102.889526,446.925781 
	C1102.049194,435.612427 1096.086670,426.965820 1087.244141,419.738281 
	C1082.766357,410.087158 1075.228882,405.346161 1065.138428,404.859863 
	C1060.040649,404.614197 1054.816772,404.768707 1049.792114,405.601257 
	C1028.216431,409.176392 1010.186340,419.253082 995.782776,435.639923 
	C991.428894,430.245575 987.226196,425.145416 982.611084,419.934814 
	C978.533203,420.446106 974.867676,421.067841 971.202271,421.300110 
	C971.815857,415.319733 972.235840,409.699371 973.080444,404.143585 
	C975.291870,389.596161 983.664185,380.101013 995.941589,378.338348 
	C996.267334,379.463257 996.483459,380.281128 996.815125,381.429535 
	C998.126343,383.346741 999.287292,384.961060 1000.523254,386.515717 
	C1008.842102,396.979279 1008.820251,396.844757 1022.057495,394.102448 
	C1025.296387,393.431458 1025.832275,391.972321 1025.894043,389.051117 
	C1026.202881,374.478058 1020.352478,362.736298 1009.936951,352.999573 
	C1009.994446,352.997223 1009.998474,353.112213 1009.868652,352.860596 
	C1009.478943,352.331451 1009.219116,352.053955 1008.678589,351.607117 
	C1000.249695,337.953064 983.724548,331.234589 966.738770,334.500824 
	C934.258179,340.746582 912.439819,364.153198 909.133911,398.541412 
	C904.227112,449.582428 900.330017,500.720734 896.040527,551.820740 
	C895.249512,561.243713 891.772156,569.605408 885.919067,576.878174 
	C881.685181,582.139099 876.145081,585.348022 869.040833,584.513062 
	C869.343872,579.589783 869.597717,575.107239 869.969604,570.634521 
	C871.513306,552.068115 873.134155,533.508057 874.647522,514.939270 
	C876.201782,495.870087 877.704346,476.796326 879.096130,457.714874 
	C879.218079,456.042236 878.830811,453.929718 877.854553,452.652466 
	C874.430664,448.172455 870.645508,443.968567 866.697144,439.468048 
	C850.275574,442.576141 834.140015,445.810394 818.062439,449.310699 
	C816.880554,449.567993 815.514832,451.642761 815.274536,453.050140 
	C814.625610,456.850281 814.538635,460.746307 814.153687,465.537659 
	C809.426636,455.951050 803.138794,452.631836 792.420593,453.567108 
	C767.904602,455.706482 748.476074,466.927399 734.000916,486.727142 
	C712.209900,516.533752 704.727478,550.380432 705.974121,586.671448 
	C706.034607,588.430725 706.269165,590.675476 705.357178,591.901794 
	C694.510925,606.485718 682.603455,619.848328 664.261108,625.229797 
	C656.572571,627.485596 648.895630,629.747986 640.685425,627.264893 
	C637.750793,613.623047 637.672302,600.233948 638.941284,586.776611 
	C640.899963,566.005554 644.708557,545.682007 653.889465,526.739136 
	C657.602905,519.077209 661.757324,511.608978 670.833679,509.218506 
	C670.901123,511.484039 670.929321,513.305725 670.808289,515.117493 
	C670.550476,518.976746 670.215210,522.830872 670.040771,527.020264 
	C673.404907,531.374084 676.478516,535.542236 679.951782,539.345459 
	C681.418274,540.951294 683.583618,542.340820 685.676147,542.882385 
	C696.581116,545.704407 706.287781,539.886169 709.589294,528.848328 
	C713.683960,515.158875 707.867065,498.648163 695.947144,490.019043 
	C695.983459,490.015472 695.973206,490.087769 695.975891,489.760010 
	C695.587952,488.929596 695.197266,488.426941 694.533142,487.745605 
	C688.454834,476.360077 678.624756,472.455109 666.794434,473.347778 
	C639.471252,475.409424 616.801025,486.432129 600.660950,509.218170 
	C577.045227,542.558228 570.482300,579.971863 574.395813,619.867554 
	C574.534302,621.279785 574.793518,623.049133 574.131042,624.113159 
	C568.460327,633.220581 561.253296,640.236389 549.710205,640.360596 
	C549.777649,638.578064 549.800110,637.244141 549.909180,635.917358 
	C552.335999,606.408813 554.740540,576.898438 557.219177,547.394287 
	C558.695007,529.826721 560.328857,512.272522 561.820679,494.706299 
	C563.256348,477.801544 564.648865,460.892670 565.915405,443.974731 
	C566.053467,442.130737 565.792297,439.798767 564.756287,438.408569 
	C561.291504,433.759033 557.390686,429.434448 553.231140,424.963226 
	C538.019958,430.001099 523.315063,435.318726 508.405762,439.982788 
	C503.124451,441.634918 501.363159,444.138428 500.944244,449.643829 
	C498.329498,484.011017 495.166779,518.335999 492.369476,552.690002 
	C490.099579,580.566833 488.092499,608.465027 485.942688,636.351807 
	C485.855835,637.478699 485.791992,638.767212 485.225433,639.672485 
	C479.527435,648.776978 472.343079,655.792847 460.814209,655.927490 
	C462.369812,635.889526 463.885529,616.340454 465.478455,596.797729 
	C467.260529,574.934448 469.140045,553.079163 470.875336,531.212219 
	C470.997070,529.678406 470.751892,527.707336 469.866180,526.572876 
	C466.201294,521.878723 462.224182,517.428223 458.064728,512.745850 
	C457.362946,512.434509 456.958191,512.265503 456.840790,511.837311 
	C458.330322,511.026306 459.557037,510.522064 460.730988,509.915680 
	C475.851654,502.105927 482.445587,483.988495 474.517792,470.432892 
	C471.401001,465.103516 466.717743,460.690247 462.486511,455.674133 
	C459.594849,449.972504 455.235413,446.286255 449.768860,443.809418 
	C436.964539,438.008087 421.088806,443.245575 412.767700,455.990021 
	C404.651306,468.420929 406.589386,482.498627 417.936493,493.074707 
	C418.392883,493.583679 418.743378,493.783325 419.056641,493.982727 
	C419.019409,493.982483 419.030304,493.908875 419.010773,494.231140 
	C419.354126,494.696289 419.716980,494.839203 420.045349,494.986572 
	C420.010834,494.990997 420.031189,494.924438 419.937958,495.277313 
	C423.502411,499.878296 426.801147,504.517303 430.901978,508.282776 
	C437.044159,513.922729 444.947235,513.421448 452.299500,513.350586 
	C437.042938,516.789612 422.115295,519.977173 407.133209,523.176392 
	C406.708496,528.083862 406.334686,532.554260 405.932434,537.022095 
	C404.709717,550.604370 403.476044,564.185608 402.246643,577.767273 
	C399.480286,567.118103 394.044495,558.006165 386.091431,550.112183 
	C385.818939,550.037415 385.947998,550.164917 385.867859,549.834473 
	C385.385651,549.306946 384.983643,549.109863 384.345428,548.698975 
	C377.430817,535.752136 366.673248,529.834900 352.527893,529.798828 
	C338.796631,529.763794 326.656860,534.794800 315.059235,541.600342 
	C311.282318,536.889954 307.661987,532.481567 303.626587,527.971497 
	C290.510010,530.391602 277.808472,532.913391 265.106934,535.435120 
M1036.216797,389.724060 
	C1037.442505,391.498901 1038.765259,393.215485 1039.874268,395.060577 
	C1042.316895,399.124146 1045.368286,400.727661 1050.256714,399.093597 
	C1054.642212,397.627625 1059.284180,396.789246 1063.878540,396.133026 
	C1067.418945,395.627380 1069.436401,393.921875 1070.985962,390.782196 
	C1077.094971,378.403351 1083.410522,366.126343 1089.650879,353.812256 
	C1095.489868,342.290192 1095.494263,342.287292 1086.763916,332.912354 
	C1086.317871,332.433441 1085.721558,332.094574 1084.815552,331.050690 
	C1082.798462,330.420227 1080.643188,328.981720 1078.787964,329.298706 
	C1070.613159,330.695557 1062.469971,332.386627 1054.444092,334.468079 
	C1052.449341,334.985352 1050.008057,337.035126 1049.348022,338.929565 
	C1044.217529,353.656952 1039.385010,368.491272 1034.731934,383.377441 
	C1034.212036,385.040619 1035.390503,387.234619 1036.216797,389.724060 
M516.566040,199.073944 
	C431.638031,258.349854 374.080078,337.407166 344.886658,436.873383 
	C346.104462,435.706665 346.749359,434.203644 347.320831,432.673218 
	C408.723724,268.231659 577.140747,142.180878 778.545532,165.936951 
	C868.968323,176.602478 947.780212,212.335754 1012.797546,276.913818 
	C1025.761963,289.790588 1044.981567,289.930725 1056.930054,277.282471 
	C1069.079224,264.421783 1067.977539,245.030670 1054.096802,232.913986 
	C1046.195801,226.016998 1038.131104,219.252472 1029.695435,213.031235 
	C937.341614,144.921143 833.640564,117.000519 719.719360,126.890717 
	C646.129395,133.279495 578.481445,157.246826 516.566040,199.073944 
z"/>
<path fill="#BF171C" opacity="1.000000" stroke="none" 
	d="
M1232.112183,557.924744 
	C1240.834229,571.548401 1237.656006,586.578613 1236.714844,601.133179 
	C1234.810547,630.579895 1230.118408,659.661255 1222.651978,688.224609 
	C1203.021729,763.321106 1167.825806,830.238586 1116.329712,888.381592 
	C1050.927734,962.225525 970.501404,1011.989990 875.195557,1037.495728 
	C836.920166,1047.738892 797.920105,1052.953003 758.257935,1053.339966 
	C639.006287,1054.503418 533.074219,1017.364990 440.891479,941.944336 
	C378.771362,891.120056 332.484070,828.122803 301.567719,753.999451 
	C299.941040,750.099426 300.493073,745.283875 300.081329,740.889771 
	C300.004608,740.070801 300.143829,739.226562 300.227386,738.398376 
	C300.591431,734.789307 300.971680,731.181946 301.292877,728.086365 
	C325.695862,740.301147 346.853210,730.821289 366.703064,717.485107 
	C383.082947,706.480286 391.527161,689.178772 398.904114,671.295654 
	C401.990509,680.289124 406.597809,687.805847 414.773071,693.123657 
	C419.578796,705.199951 428.654999,711.205750 440.932831,711.950562 
	C458.575531,713.020569 473.215057,705.357971 486.568024,694.784119 
	C492.750671,689.888184 498.638245,684.619568 504.309906,679.816101 
	C511.075500,693.242432 523.585632,698.266174 539.583557,696.007446 
	C552.452698,694.190430 563.878784,688.742615 573.689392,680.501404 
	C581.229309,674.167847 587.855286,666.746277 594.936523,659.760437 
	C604.043701,674.960022 618.972107,679.786865 636.330200,678.738525 
	C642.914429,678.340759 649.544128,677.042236 655.931641,675.328796 
	C683.062988,668.050964 703.376038,651.312805 719.644287,628.896545 
	C722.069580,631.026917 724.200073,633.011475 726.446289,635.297119 
	C729.793396,639.772217 732.427673,644.649048 736.363770,647.994019 
	C750.523499,660.026855 772.672424,660.648315 791.138367,650.197388 
	C804.838196,642.443970 813.535522,630.183838 821.490112,617.048767 
	C823.078064,618.077515 824.370483,619.032654 825.762756,620.351318 
	C830.313110,632.036499 838.956177,637.616272 850.671326,639.206055 
	C848.362915,642.192749 846.078613,644.816589 843.906677,647.530457 
	C832.892578,661.292664 831.242004,689.134033 851.784668,702.273193 
	C854.974243,706.817261 857.504883,711.776855 861.460022,714.974304 
	C871.055115,722.731384 882.541687,724.730530 894.493713,722.420166 
	C926.552063,716.223206 946.742188,694.355347 950.889282,660.970459 
	C952.856018,645.138367 953.851074,629.183899 955.213989,613.278687 
	C957.840698,582.626343 960.412415,551.969299 963.014221,521.314819 
	C964.505127,503.749359 965.891052,486.173584 967.588989,468.628052 
	C968.044312,463.922485 967.992859,457.682953 970.846985,455.091949 
	C974.003296,452.226654 980.228027,452.741425 985.053467,452.146240 
	C968.497864,481.729156 963.741333,513.379761 966.328552,546.307190 
	C967.589722,562.358276 972.155823,577.346130 986.103394,587.964111 
	C986.531433,588.489563 986.853088,588.709900 987.122192,588.921509 
	C987.069641,588.912720 987.116455,588.817139 987.045410,589.178955 
	C991.057922,598.105591 997.835083,603.668457 1006.575317,606.969727 
	C1017.882507,611.240479 1029.437866,610.669556 1040.994141,608.348511 
	C1071.949829,602.131287 1094.846558,584.216003 1112.797729,558.931641 
	C1115.051880,560.798462 1117.023071,562.522156 1119.160156,564.397217 
	C1119.512085,564.800232 1119.758301,564.958191 1120.031006,565.018188 
	C1119.997192,565.014038 1120.003662,564.946411 1119.887207,565.304688 
	C1124.569580,576.099854 1133.021606,582.065125 1143.809814,584.970703 
	C1159.465332,589.187378 1174.520874,585.820007 1189.321533,580.788940 
	C1205.907959,575.150940 1219.545898,564.897522 1231.996582,553.217651 
	C1232.081177,555.068970 1232.096680,556.496887 1232.112183,557.924744 
M1013.701416,882.663269 
	C1013.527710,882.021606 1013.300110,881.389221 1013.188110,880.736938 
	C1007.814697,849.444214 1002.501587,818.140991 997.061829,786.859802 
	C994.911743,774.495789 984.653992,767.546326 972.247986,769.669373 
	C947.834473,773.847229 923.411926,777.971497 898.994751,782.128052 
	C883.263367,784.805969 867.531616,787.482544 851.806274,790.196106 
	C839.287598,792.356384 831.817566,802.243225 833.886536,814.579651 
	C840.513000,854.091003 847.264648,893.581848 854.126282,933.053040 
	C856.138672,944.629272 866.900818,951.621216 878.633911,949.645813 
	C886.650696,948.296082 894.706970,947.180237 902.144104,946.497986 
	C879.945862,954.761292 857.235779,961.391846 833.824707,964.851746 
	C814.773132,967.667297 795.493347,968.939148 776.575134,970.144226 
	C777.585632,967.681885 778.562073,965.204834 779.611816,962.759399 
	C793.526550,930.346069 807.500183,897.957947 821.340210,865.512878 
	C824.878357,857.218567 823.319824,848.450134 817.004822,843.053284 
	C813.796265,840.311401 809.757019,838.366882 805.831421,836.666077 
	C771.022339,821.584961 736.147644,806.655334 701.307800,791.645081 
	C688.524414,786.137573 677.636902,790.063416 672.149902,802.719849 
	C656.861877,837.983704 641.693970,873.299988 626.604431,908.649292 
	C621.694641,920.151184 626.318176,931.229797 637.814026,936.238892 
	C647.728394,940.558716 657.708557,944.727905 667.618225,949.058350 
	C681.932922,955.313904 696.210327,961.654846 709.596008,968.104126 
	C702.517578,967.047668 695.396851,966.217163 688.367126,964.900330 
	C602.758362,948.864624 529.208496,910.183655 469.575592,846.473389 
	C454.282318,830.134583 441.281921,811.613220 427.638977,793.780212 
	C419.810669,783.547668 408.041656,778.416565 395.688660,781.121094 
	C383.836670,783.715881 374.725128,793.379028 372.551300,805.879944 
	C370.900330,815.374207 374.115326,823.433350 379.765533,830.984619 
	C468.874512,950.075012 621.697571,1018.648865 771.132324,1006.143311 
	C844.882446,999.971436 912.813049,976.531250 974.692139,935.806152 
	C976.180420,934.826660 977.444946,933.507019 979.361267,932.074951 
	C985.429321,931.093262 991.502930,930.144470 997.564331,929.123413 
	C1012.110046,926.672974 1018.476135,918.586792 1017.938049,903.204529 
	C1088.256714,842.848022 1134.506104,767.686401 1156.618774,677.689331 
	C1156.935913,676.398254 1156.906494,675.022034 1157.038696,673.685608 
	C1155.773193,674.735229 1155.360840,675.940308 1154.986206,677.156982 
	C1138.257690,731.473572 1111.805786,780.541321 1075.316772,824.122620 
	C1056.980347,846.023071 1036.725830,865.999023 1013.701416,882.663269 
z"/>
<path fill="#FEFDFD" opacity="1.000000" stroke="none" 
	d="
M851.773499,701.887207 
	C831.242004,689.134033 832.892578,661.292664 843.906677,647.530457 
	C846.078613,644.816589 848.362915,642.192749 850.866455,638.921021 
	C863.741577,630.334351 876.356567,622.371155 888.926208,614.336792 
	C889.795532,613.781189 890.830811,612.752014 890.931458,611.847717 
	C891.529846,606.472290 891.875610,601.068665 892.264343,596.199219 
	C884.790833,602.101440 877.779846,608.771790 869.722351,613.747681 
	C856.172180,622.115662 841.570740,626.596375 825.662903,619.987793 
	C824.370483,619.032654 823.078064,618.077515 821.327698,616.742615 
	C817.081787,610.717651 813.293884,605.072388 809.937317,600.069946 
	C805.208557,606.536743 799.968994,614.190186 794.231628,621.450195 
	C780.784912,638.465576 750.059937,649.858337 726.330627,634.996033 
	C724.200073,633.011475 722.069580,631.026917 719.506836,628.577454 
	C715.688110,622.086914 712.301575,616.061218 708.905640,610.018982 
	C709.272339,609.815552 708.896484,609.905823 708.716187,610.143982 
	C707.814331,611.335693 706.965454,612.567444 706.094849,613.782959 
	C688.469727,638.390381 665.819092,655.749878 635.564819,661.505859 
	C614.272156,665.556824 594.513489,663.956787 581.393066,642.961548 
	C580.468567,644.310913 579.670105,645.568665 578.781677,646.759277 
	C565.527405,664.522461 548.539917,676.578674 526.407288,680.455139 
	C510.946503,683.163086 498.479095,676.873901 491.084229,663.093933 
	C490.905243,662.760437 490.591888,662.499023 490.170441,662.002930 
	C481.993896,673.675476 471.551117,682.395508 459.289673,688.732422 
	C445.115509,696.057861 430.388580,699.944763 414.792572,692.731689 
	C406.597809,687.805847 401.990509,680.289124 399.147705,671.017334 
	C394.849670,652.276672 398.147186,633.914856 399.361908,615.552795 
	C400.174164,603.274170 401.327637,591.018005 402.287537,578.259521 
	C403.476044,564.185608 404.709717,550.604370 405.932434,537.022095 
	C406.334686,532.554260 406.708496,528.083862 407.133209,523.176392 
	C422.115295,519.977173 437.042938,516.789612 452.592621,513.342529 
	C454.327576,512.754150 455.440491,512.425354 456.553436,512.096558 
	C456.958191,512.265503 457.362946,512.434509 457.985962,513.206665 
	C455.241394,549.624268 452.180939,585.430908 449.384674,621.258240 
	C448.689087,630.170532 448.168640,639.199951 448.828735,648.081787 
	C449.354309,655.154236 453.473633,657.320007 460.808411,656.419250 
	C472.343079,655.792847 479.527435,648.776978 485.225433,639.672485 
	C485.791992,638.767212 485.855835,637.478699 485.942688,636.351807 
	C488.092499,608.465027 490.099579,580.566833 492.369476,552.690002 
	C495.166779,518.335999 498.329498,484.011017 500.944244,449.643829 
	C501.363159,444.138428 503.124451,441.634918 508.405762,439.982788 
	C523.315063,435.318726 538.019958,430.001099 553.125916,425.413788 
	C552.500244,437.333069 551.571289,448.781097 550.604919,460.225922 
	C546.081238,513.800720 541.526306,567.372925 537.065308,620.952881 
	C536.777283,624.411804 536.838867,627.979431 537.340515,631.408325 
	C538.457886,639.046082 541.891052,641.499146 549.705627,640.812622 
	C561.253296,640.236389 568.460327,633.220581 574.131042,624.113159 
	C574.793518,623.049133 574.534302,621.279785 574.395813,619.867554 
	C570.482300,579.971863 577.045227,542.558228 600.660950,509.218170 
	C616.801025,486.432129 639.471252,475.409424 666.794434,473.347778 
	C678.624756,472.455109 688.454834,476.360077 694.593262,488.070374 
	C695.275635,489.078430 695.624451,489.583099 695.973206,490.087769 
	C695.973206,490.087769 695.983459,490.015472 695.925232,490.425598 
	C696.581360,495.071991 697.644775,499.283600 697.945923,503.549011 
	C698.918274,517.319702 689.276367,532.558960 669.911682,526.687073 
	C670.215210,522.830872 670.550476,518.976746 670.808289,515.117493 
	C670.929321,513.305725 670.901123,511.484039 670.900024,508.828217 
	C670.185364,504.753937 669.935608,501.351349 668.743164,498.319519 
	C666.660278,493.023712 662.109741,490.978516 656.985535,493.424408 
	C653.506775,495.084961 650.013550,497.612579 647.721924,500.653137 
	C644.262817,505.242889 641.304443,510.391327 639.079651,515.699036 
	C628.893799,539.998718 624.972351,565.532104 625.743835,591.730652 
	C625.981140,599.790649 627.500183,607.909119 629.324341,615.794434 
	C630.667969,621.602173 634.120117,626.427429 640.765564,627.626465 
	C648.895630,629.747986 656.572571,627.485596 664.261108,625.229797 
	C682.603455,619.848328 694.510925,606.485718 705.357178,591.901794 
	C706.269165,590.675476 706.034607,588.430725 705.974121,586.671448 
	C704.727478,550.380432 712.209900,516.533752 734.000916,486.727142 
	C748.476074,466.927399 767.904602,455.706482 792.420593,453.567108 
	C803.138794,452.631836 809.426636,455.951050 814.153687,465.537659 
	C814.538635,460.746307 814.625610,456.850281 815.274536,453.050140 
	C815.514832,451.642761 816.880554,449.567993 818.062439,449.310699 
	C834.140015,445.810394 850.275574,442.576141 866.581848,439.898682 
	C863.507690,479.538208 860.188416,518.550476 857.054993,557.577637 
	C856.592163,563.343079 856.475342,569.242371 857.154846,574.966187 
	C857.989990,582.002686 862.145386,585.037903 869.045898,584.958313 
	C876.145081,585.348022 881.685181,582.139099 885.919067,576.878174 
	C891.772156,569.605408 895.249512,561.243713 896.040527,551.820740 
	C900.330017,500.720734 904.227112,449.582428 909.133911,398.541412 
	C912.439819,364.153198 934.258179,340.746582 966.738770,334.500824 
	C983.724548,331.234589 1000.249695,337.953064 1008.722412,351.948669 
	C1009.364136,352.677094 1009.681274,352.894653 1009.998474,353.112213 
	C1009.998474,353.112213 1009.994446,352.997223 1009.855469,353.402710 
	C1012.548706,361.547333 1013.207092,369.520752 1012.897949,377.513824 
	C1007.089355,378.799438 1001.894470,379.949219 996.699585,381.098999 
	C996.483459,380.281128 996.267334,379.463257 996.013428,377.904572 
	C995.887878,371.944458 995.955017,366.536224 990.331360,363.796570 
	C984.533264,360.971954 978.547974,361.874268 973.954224,365.837158 
	C969.685425,369.519775 965.774353,374.135803 963.205139,379.114563 
	C960.929688,383.524048 960.280579,388.946625 959.685547,394.012604 
	C958.494019,404.157684 957.830383,414.364716 956.917419,424.908295 
	C962.144287,423.730560 966.673279,422.710052 971.202209,421.689575 
	C974.867676,421.067841 978.533203,420.446106 982.551880,420.367004 
	C982.657410,425.187225 982.409668,429.464844 982.164673,433.695496 
	C973.069763,435.652252 964.507019,437.494537 956.098267,439.303680 
	C955.942627,440.277496 955.831909,440.765961 955.790161,441.260223 
	C950.509583,503.825745 945.439575,566.410278 939.784729,628.941895 
	C938.654907,641.436035 936.435181,654.081238 932.736511,666.044128 
	C923.590332,695.626343 879.886658,718.513245 851.773499,701.887207 
M868.773682,677.839722 
	C875.190735,677.314575 879.965393,673.931702 882.290344,668.219055 
	C884.508484,662.768860 885.533203,656.832947 887.413452,650.360413 
	C888.232483,642.311035 889.051514,634.261719 889.968872,625.245972 
	C877.741028,632.508301 866.157837,639.329102 859.050598,651.212219 
	C856.775940,655.015320 855.642517,659.880737 855.277405,664.365234 
	C854.568237,673.075012 859.055298,677.346741 868.773682,677.839722 
M773.518311,602.572266 
	C779.868347,603.422852 785.326172,601.273254 790.142090,597.368103 
	C798.368835,590.697144 803.365112,581.973694 804.931946,571.591309 
	C806.219238,563.061584 806.797485,554.417542 807.503540,545.808899 
	C809.051819,526.932861 810.481873,508.047119 812.201416,488.412964 
	C813.383484,478.237518 807.483521,471.946686 797.504700,474.130707 
	C792.257446,475.279144 786.586853,478.027802 782.877869,481.796295 
	C777.985229,486.767456 774.130981,493.111481 771.062927,499.460876 
	C762.380127,517.429932 759.345459,536.846497 758.207092,556.569336 
	C757.513672,568.581726 757.993347,580.557373 761.833008,592.139404 
	C763.620239,597.530396 766.632202,601.641846 773.518311,602.572266 
z"/>
<path fill="#FDFDFD" opacity="1.000000" stroke="none" 
	d="
M985.996948,587.658997 
	C972.155823,577.346130 967.589722,562.358276 966.328552,546.307190 
	C963.741333,513.379761 968.497864,481.729156 985.296631,451.947205 
	C989.046448,446.235352 992.490173,441.084747 995.933899,435.934113 
	C1010.186340,419.253082 1028.216431,409.176392 1049.792114,405.601257 
	C1054.816772,404.768707 1060.040649,404.614197 1065.138428,404.859863 
	C1075.228882,405.346161 1082.766357,410.087158 1087.376587,420.127625 
	C1088.638306,428.953217 1090.769409,437.236694 1090.220947,445.338806 
	C1088.975952,463.733124 1079.754761,478.765656 1067.238647,491.807953 
	C1054.800903,504.768616 1039.849854,513.832275 1022.892334,519.753235 
	C1020.977844,520.421692 1018.145081,522.999146 1018.317749,524.365356 
	C1019.394531,532.885315 1020.805115,541.414734 1022.928711,549.730713 
	C1024.142212,554.482971 1027.790649,557.838440 1033.396606,558.941040 
	C1037.068115,559.208008 1040.410889,559.706543 1043.655518,559.339172 
	C1065.027710,556.919067 1080.715576,545.211853 1093.663818,528.795471 
	C1097.323608,524.155396 1099.348877,519.778320 1098.936523,513.575623 
	C1098.400024,505.505676 1099.189209,497.319824 1099.783813,489.211426 
	C1100.243408,482.942688 1101.281128,476.716339 1102.192139,470.209381 
	C1102.530396,468.871613 1102.738525,467.795624 1102.946533,466.719635 
	C1106.682007,456.619537 1109.682007,446.168854 1114.296143,436.487488 
	C1126.393188,411.106018 1144.496460,391.803101 1172.728516,384.719482 
	C1181.607910,382.491577 1191.063477,382.560333 1200.754272,381.562012 
	C1215.062744,384.566956 1221.337891,393.932861 1223.161377,407.246094 
	C1226.021484,428.129578 1218.799316,445.895905 1206.118164,461.802216 
	C1193.135376,478.086853 1176.381104,489.166687 1156.764893,495.996918 
	C1154.898193,496.646881 1153.024048,497.275879 1150.039673,498.294861 
	C1151.699707,507.112274 1153.016602,515.949524 1155.121582,524.594910 
	C1156.377930,529.754822 1159.711548,533.807007 1165.984985,535.579346 
	C1171.312256,535.711304 1176.006104,536.127014 1180.512817,535.393066 
	C1204.681152,531.457092 1220.141968,515.573792 1233.117065,496.421112 
	C1236.531982,493.322693 1237.592041,489.405396 1237.946777,484.872162 
	C1240.624756,450.655731 1243.565552,416.459808 1246.207031,382.240723 
	C1246.509644,378.321533 1248.043091,376.976959 1251.661133,376.259521 
	C1266.983154,373.221466 1282.251465,369.911560 1298.056396,366.592438 
	C1297.618042,372.463593 1297.212036,377.901459 1296.701416,384.740234 
	C1298.476562,382.440308 1299.491455,381.094788 1300.537964,379.774231 
	C1312.502075,364.676178 1327.892822,356.162537 1347.357910,355.961945 
	C1365.542114,355.774567 1377.920898,366.136810 1379.728882,385.129059 
	C1381.027710,398.773132 1380.178223,412.703369 1379.334229,426.447418 
	C1378.436768,441.062256 1376.243896,455.593353 1374.989136,470.193054 
	C1374.610107,474.603821 1374.962280,479.229065 1375.881104,483.565002 
	C1377.346191,490.478546 1381.277954,492.984344 1388.177002,492.341064 
	C1397.108521,491.508240 1404.191528,487.438965 1408.160156,479.334167 
	C1411.216553,473.092590 1413.793457,466.529541 1415.732300,459.861877 
	C1416.796997,456.200867 1418.440430,454.630371 1421.957642,454.153839 
	C1425.083984,453.730225 1428.161255,452.942963 1432.049316,452.156555 
	C1431.364746,455.416046 1431.037598,458.483917 1430.066406,461.332245 
	C1426.157837,472.795135 1423.263672,484.816772 1417.758667,495.477264 
	C1406.921387,516.464233 1389.429077,529.155396 1365.316650,531.209656 
	C1343.824097,533.040710 1328.277100,520.704407 1327.272705,499.069092 
	C1326.528076,483.029297 1328.704468,466.860596 1329.444092,450.743103 
	C1330.114136,436.137695 1330.740112,421.526733 1331.041016,406.911102 
	C1331.095947,404.242004 1329.827393,401.373627 1328.588135,398.886993 
	C1326.259766,394.214386 1322.034424,392.463745 1316.870117,393.487305 
	C1309.405273,394.966797 1304.560181,399.779999 1300.989502,406.114197 
	C1295.227173,416.336182 1292.945679,427.478729 1292.019043,439.074615 
	C1289.192627,474.448853 1286.170532,509.807465 1283.218018,545.171631 
	C1283.177246,545.659546 1283.052246,546.140381 1282.879395,547.117371 
	C1266.297852,550.665710 1249.585327,554.242126 1232.492432,557.871643 
	C1232.096680,556.496887 1232.081177,555.068970 1232.100708,552.830200 
	C1233.134521,540.689758 1234.133057,529.360229 1235.131714,518.030640 
	C1232.822510,519.872253 1231.339233,521.992432 1229.789307,524.062683 
	C1214.983521,543.839783 1196.671509,558.968079 1172.746704,566.381042 
	C1155.059692,571.861206 1137.344604,574.178101 1120.003662,564.946411 
	C1120.003662,564.946411 1119.997192,565.014038 1119.916260,564.809875 
	C1119.624268,564.323792 1119.343994,564.203857 1118.994385,564.245850 
	C1117.023071,562.522156 1115.051880,560.798462 1112.625732,558.621216 
	C1108.681885,552.314148 1105.192749,546.460632 1101.958740,541.035095 
	C1096.230713,547.811035 1090.790039,555.733582 1083.918091,562.114685 
	C1056.390015,587.676575 1025.703369,602.862183 987.116455,588.817139 
	C987.116455,588.817139 987.069641,588.912720 987.175537,588.571472 
	C986.853210,588.039795 986.425110,587.849365 985.996948,587.658997 
M1162.539062,476.106659 
	C1184.187866,462.271301 1196.288086,443.072113 1195.964111,416.007416 
	C1195.393921,412.911438 1195.158691,409.705200 1194.183960,406.742401 
	C1192.146851,400.550964 1187.724365,398.248657 1182.191650,401.597778 
	C1177.529175,404.420044 1172.512939,408.320129 1170.186279,413.001892 
	C1164.899414,423.639954 1160.321167,434.809174 1157.053345,446.220184 
	C1153.938965,457.095123 1152.852173,468.550629 1150.873901,479.750885 
	C1151.427856,480.046936 1151.981934,480.342987 1152.535889,480.639069 
	C1155.623657,479.174072 1158.711548,477.709106 1162.539062,476.106659 
M1033.486816,497.030579 
	C1052.471558,482.764771 1063.583862,464.447021 1062.954712,439.196136 
	C1062.487915,436.417847 1062.300659,433.556061 1061.500244,430.877472 
	C1059.386108,423.803192 1054.480591,421.554840 1048.095581,425.306122 
	C1044.480591,427.429871 1040.912964,430.419830 1038.620361,433.878845 
	C1025.779175,453.253448 1021.301758,475.327240 1019.045044,497.985840 
	C1018.663940,501.811981 1021.231445,503.157806 1024.576294,501.795135 
	C1027.452515,500.623352 1030.050049,498.767426 1033.486816,497.030579 
z"/>
<path fill="#FDFDFD" opacity="1.000000" stroke="none" 
	d="
M264.787445,535.617188 
	C277.808472,532.913391 290.510010,530.391602 303.567413,528.379028 
	C303.230713,536.992004 302.538116,545.095825 301.803802,553.687927 
	C306.759552,549.333130 310.987671,545.617737 315.215759,541.902344 
	C326.656860,534.794800 338.796631,529.763794 352.527893,529.798828 
	C366.673248,529.834900 377.430817,535.752136 384.494751,549.032227 
	C385.236176,549.774475 385.592102,549.969727 385.947998,550.164917 
	C385.947998,550.164917 385.818939,550.037415 385.741852,550.084167 
	C396.507233,581.134583 395.676056,612.602112 388.937866,644.165039 
	C385.560089,659.987305 378.578674,674.372009 368.820007,687.285522 
	C354.226501,706.596924 334.079529,715.643311 310.532684,717.958313 
	C302.673981,718.730957 295.265717,717.177734 288.610046,710.966248 
	C285.919983,742.862122 283.292999,774.009827 280.612396,805.793213 
	C263.770020,810.103455 246.810806,814.443604 229.298508,818.925232 
	C237.100830,725.126831 244.857758,631.874146 252.635468,538.371582 
	C256.721008,537.483398 260.594482,536.641296 264.787445,535.617188 
M305.515320,688.898804 
	C318.905701,686.044250 327.241730,677.252197 332.837677,665.395691 
	C344.459900,640.771057 345.694916,614.667786 343.439819,588.140991 
	C343.092041,584.049744 341.822754,580.036926 340.997437,575.241699 
	C339.511414,572.107666 338.356995,568.753906 336.460754,565.891663 
	C333.693054,561.713928 329.418762,559.889954 324.401093,560.238953 
	C314.005157,560.962158 299.948395,574.422058 299.069580,584.757141 
	C296.363617,616.580017 293.793762,648.414429 291.196747,680.246521 
	C290.798431,685.128845 293.015045,688.205994 297.840240,688.996643 
	C300.069611,689.361938 302.433411,688.906860 305.515320,688.898804 
z"/>
<path fill="#FDFDFD" opacity="1.000000" stroke="none" 
	d="
M103.318848,705.404541 
	C107.858032,722.267883 120.085869,730.587585 136.543060,728.347900 
	C173.684387,723.293213 191.502838,684.519592 170.303986,653.494995 
	C164.200302,644.562195 155.799011,637.013611 147.677246,629.688416 
	C135.069107,618.317017 121.628456,607.873901 108.859581,596.673767 
	C98.204056,587.327393 89.487854,576.514160 86.074570,562.238586 
	C81.021004,541.102722 86.537773,522.615112 100.421638,506.506744 
	C116.713036,487.605042 138.057144,477.900146 162.300629,473.977875 
	C175.468689,471.847473 188.524994,471.865112 201.143829,477.017700 
	C221.930466,485.505402 232.333160,509.871979 223.996979,530.509338 
	C216.567108,548.903015 194.362396,554.907532 180.455826,541.982117 
	C187.737045,533.504883 191.645569,523.726074 191.110153,512.359253 
	C190.351486,496.252594 179.292221,487.552582 163.435379,490.665802 
	C136.644409,495.925751 125.133926,526.912598 141.493698,550.480896 
	C144.960754,555.475647 149.404343,560.013489 154.122253,563.877502 
	C168.032700,575.270264 182.362885,586.148682 196.422348,597.361938 
	C210.602615,608.671509 222.353470,621.996826 227.805038,639.655029 
	C235.723221,665.302917 230.485123,688.820007 214.275955,709.792053 
	C194.835220,734.945312 168.433868,748.517395 137.410400,752.772217 
	C126.856995,754.219604 115.580200,754.320374 105.183228,752.262024 
	C70.634529,745.422180 52.912548,713.096191 64.590408,679.380859 
	C71.849167,658.424011 85.887566,644.737732 108.570168,641.441528 
	C122.456024,639.423767 133.994446,645.798828 138.425278,657.960571 
	C114.938286,664.780457 99.046318,677.452332 103.318848,705.404541 
z"/>
<path fill="#BE181D" opacity="1.000000" stroke="none" 
	d="
M1233.023926,495.998840 
	C1220.141968,515.573792 1204.681152,531.457092 1180.512817,535.393066 
	C1176.006104,536.127014 1171.312256,535.711304 1166.362061,535.602295 
	C1165.316040,529.289490 1164.658081,523.194763 1163.887085,517.114380 
	C1163.572998,514.637085 1164.189941,513.288635 1166.851562,512.431030 
	C1192.264893,504.242767 1212.501831,489.229828 1227.465698,465.064850 
	C1229.432129,476.043152 1231.181519,485.809875 1233.023926,495.998840 
z"/>
<path fill="#FEFDFD" opacity="1.000000" stroke="none" 
	d="
M516.869019,198.881104 
	C578.481445,157.246826 646.129395,133.279495 719.719360,126.890717 
	C833.640564,117.000519 937.341614,144.921143 1029.695435,213.031235 
	C1038.131104,219.252472 1046.195801,226.016998 1054.096802,232.913986 
	C1067.977539,245.030670 1069.079224,264.421783 1056.930054,277.282471 
	C1044.981567,289.930725 1025.761963,289.790588 1012.797546,276.913818 
	C947.780212,212.335754 868.968323,176.602478 778.545532,165.936951 
	C577.140747,142.180878 408.723724,268.231659 347.320831,432.673218 
	C346.749359,434.203644 346.104462,435.706665 344.886658,436.873383 
	C374.080078,337.407166 431.638031,258.349854 516.869019,198.881104 
z"/>
<path fill="#050303" opacity="1.000000" stroke="none" 
	d="
M995.782776,435.639923 
	C992.490173,441.084747 989.046448,446.235352 985.359558,451.585022 
	C980.228027,452.741425 974.003296,452.226654 970.846985,455.091949 
	C967.992859,457.682953 968.044312,463.922485 967.588989,468.628052 
	C965.891052,486.173584 964.505127,503.749359 963.014221,521.314819 
	C960.412415,551.969299 957.840698,582.626343 955.213989,613.278687 
	C953.851074,629.183899 952.856018,645.138367 950.889282,660.970459 
	C946.742188,694.355347 926.552063,716.223206 894.493713,722.420166 
	C882.541687,724.730530 871.055115,722.731384 861.460022,714.974304 
	C857.504883,711.776855 854.974243,706.817261 851.784668,702.273193 
	C879.886658,718.513245 923.590332,695.626343 932.736511,666.044128 
	C936.435181,654.081238 938.654907,641.436035 939.784729,628.941895 
	C945.439575,566.410278 950.509583,503.825745 955.790161,441.260223 
	C955.831909,440.765961 955.942627,440.277496 956.098267,439.303680 
	C964.507019,437.494537 973.069763,435.652252 982.164673,433.695496 
	C982.409668,429.464844 982.657410,425.187225 982.964355,420.477417 
	C987.226196,425.145416 991.428894,430.245575 995.782776,435.639923 
z"/>
<path fill="#050303" opacity="1.000000" stroke="none" 
	d="
M549.710205,640.360596 
	C541.891052,641.499146 538.457886,639.046082 537.340515,631.408325 
	C536.838867,627.979431 536.777283,624.411804 537.065308,620.952881 
	C541.526306,567.372925 546.081238,513.800720 550.604919,460.225922 
	C551.571289,448.781097 552.500244,437.333069 553.551636,425.435974 
	C557.390686,429.434448 561.291504,433.759033 564.756287,438.408569 
	C565.792297,439.798767 566.053467,442.130737 565.915405,443.974731 
	C564.648865,460.892670 563.256348,477.801544 561.820679,494.706299 
	C560.328857,512.272522 558.695007,529.826721 557.219177,547.394287 
	C554.740540,576.898438 552.335999,606.408813 549.909180,635.917358 
	C549.800110,637.244141 549.777649,638.578064 549.710205,640.360596 
z"/>
<path fill="#040303" opacity="1.000000" stroke="none" 
	d="
M1033.022461,558.771973 
	C1027.790649,557.838440 1024.142212,554.482971 1022.928711,549.730713 
	C1020.805115,541.414734 1019.394531,532.885315 1018.317749,524.365356 
	C1018.145081,522.999146 1020.977844,520.421692 1022.892334,519.753235 
	C1039.849854,513.832275 1054.800903,504.768616 1067.238647,491.807953 
	C1079.754761,478.765656 1088.975952,463.733124 1090.220947,445.338806 
	C1090.769409,437.236694 1088.638306,428.953217 1087.591309,420.362732 
	C1096.086670,426.965820 1102.049194,435.612427 1102.889526,446.925781 
	C1103.351318,453.139984 1102.858521,459.425018 1102.871338,466.198883 
	C1102.738525,467.795624 1102.530396,468.871613 1101.927246,470.510529 
	C1097.485718,479.416992 1094.355347,488.380585 1089.212036,495.982117 
	C1076.290405,515.079956 1058.036011,527.632019 1036.273315,534.860229 
	C1031.642090,536.398438 1030.212646,538.458069 1030.952393,542.966675 
	C1031.812256,548.207275 1032.346802,553.501160 1033.022461,558.771973 
z"/>
<path fill="#FDFCFC" opacity="1.000000" stroke="none" 
	d="
M417.830597,492.765381 
	C406.589386,482.498627 404.651306,468.420929 412.767700,455.990021 
	C421.088806,443.245575 436.964539,438.008087 449.768860,443.809418 
	C455.235413,446.286255 459.594849,449.972504 462.589417,456.075745 
	C470.687439,475.814331 456.097168,493.729553 440.020050,497.125244 
	C432.944061,498.619781 426.557281,496.858276 420.031189,494.924438 
	C420.031189,494.924438 420.010834,494.990997 419.980621,494.704834 
	C419.643707,494.248718 419.337006,494.078796 419.030304,493.908875 
	C419.030304,493.908875 419.019409,493.982483 418.977844,493.677246 
	C418.567749,493.169769 418.199158,492.967590 417.830597,492.765381 
z"/>
<path fill="#050404" opacity="1.000000" stroke="none" 
	d="
M640.685425,627.264893 
	C634.120117,626.427429 630.667969,621.602173 629.324341,615.794434 
	C627.500183,607.909119 625.981140,599.790649 625.743835,591.730652 
	C624.972351,565.532104 628.893799,539.998718 639.079651,515.699036 
	C641.304443,510.391327 644.262817,505.242889 647.721924,500.653137 
	C650.013550,497.612579 653.506775,495.084961 656.985535,493.424408 
	C662.109741,490.978516 666.660278,493.023712 668.743164,498.319519 
	C669.935608,501.351349 670.185364,504.753937 670.793213,508.379883 
	C661.757324,511.608978 657.602905,519.077209 653.889465,526.739136 
	C644.708557,545.682007 640.899963,566.005554 638.941284,586.776611 
	C637.672302,600.233948 637.750793,613.623047 640.685425,627.264893 
z"/>
<path fill="#050404" opacity="1.000000" stroke="none" 
	d="
M869.040833,584.513062 
	C862.145386,585.037903 857.989990,582.002686 857.154846,574.966187 
	C856.475342,569.242371 856.592163,563.343079 857.054993,557.577637 
	C860.188416,518.550476 863.507690,479.538208 866.882202,440.090485 
	C870.645508,443.968567 874.430664,448.172455 877.854553,452.652466 
	C878.830811,453.929718 879.218079,456.042236 879.096130,457.714874 
	C877.704346,476.796326 876.201782,495.870087 874.647522,514.939270 
	C873.134155,533.508057 871.513306,552.068115 869.969604,570.634521 
	C869.597717,575.107239 869.343872,579.589783 869.040833,584.513062 
z"/>
<path fill="#050404" opacity="1.000000" stroke="none" 
	d="
M460.814209,655.927490 
	C453.473633,657.320007 449.354309,655.154236 448.828735,648.081787 
	C448.168640,639.199951 448.689087,630.170532 449.384674,621.258240 
	C452.180939,585.430908 455.241394,549.624268 458.282959,513.349121 
	C462.224182,517.428223 466.201294,521.878723 469.866180,526.572876 
	C470.751892,527.707336 470.997070,529.678406 470.875336,531.212219 
	C469.140045,553.079163 467.260529,574.934448 465.478455,596.797729 
	C463.885529,616.340454 462.369812,635.889526 460.814209,655.927490 
z"/>
<path fill="#FDFBFB" opacity="1.000000" stroke="none" 
	d="
M1035.781372,389.182434 
	C1035.390503,387.234619 1034.212036,385.040619 1034.731934,383.377441 
	C1039.385010,368.491272 1044.217529,353.656952 1049.348022,338.929565 
	C1050.008057,337.035126 1052.449341,334.985352 1054.444092,334.468079 
	C1062.469971,332.386627 1070.613159,330.695557 1078.787964,329.298706 
	C1080.643188,328.981720 1082.798462,330.420227 1084.952881,331.768616 
	C1076.663086,349.391357 1068.255005,366.305664 1059.758301,383.175476 
	C1059.289062,384.107361 1058.177368,385.138245 1057.208618,385.328552 
	C1050.088623,386.726929 1042.928711,387.922791 1035.781372,389.182434 
z"/>
<path fill="#040303" opacity="1.000000" stroke="none" 
	d="
M419.937958,495.277313 
	C426.557281,496.858276 432.944061,498.619781 440.020050,497.125244 
	C456.097168,493.729553 470.687439,475.814331 462.850769,456.261414 
	C466.717743,460.690247 471.401001,465.103516 474.517792,470.432892 
	C482.445587,483.988495 475.851654,502.105927 460.730988,509.915680 
	C459.557037,510.522064 458.330322,511.026306 456.840790,511.837280 
	C455.440491,512.425354 454.327576,512.754150 452.921539,513.091003 
	C444.947235,513.421448 437.044159,513.922729 430.901978,508.282776 
	C426.801147,504.517303 423.502411,499.878296 419.937958,495.277313 
z"/>
<path fill="#060404" opacity="1.000000" stroke="none" 
	d="
M971.202271,421.300110 
	C966.673279,422.710052 962.144287,423.730560 956.917419,424.908295 
	C957.830383,414.364716 958.494019,404.157684 959.685547,394.012604 
	C960.280579,388.946625 960.929688,383.524048 963.205139,379.114563 
	C965.774353,374.135803 969.685425,369.519775 973.954224,365.837158 
	C978.547974,361.874268 984.533264,360.971954 990.331360,363.796570 
	C995.955017,366.536224 995.887878,371.944458 995.903809,377.597534 
	C983.664185,380.101013 975.291870,389.596161 973.080444,404.143585 
	C972.235840,409.699371 971.815857,415.319733 971.202271,421.300110 
z"/>
<path fill="#060404" opacity="1.000000" stroke="none" 
	d="
M1035.999023,389.453247 
	C1042.928711,387.922791 1050.088623,386.726929 1057.208618,385.328552 
	C1058.177368,385.138245 1059.289062,384.107361 1059.758301,383.175476 
	C1068.255005,366.305664 1076.663086,349.391357 1085.142578,332.088501 
	C1085.721558,332.094574 1086.317871,332.433441 1086.763916,332.912354 
	C1095.494263,342.287292 1095.489868,342.290192 1089.650879,353.812256 
	C1083.410522,366.126343 1077.094971,378.403351 1070.985962,390.782196 
	C1069.436401,393.921875 1067.418945,395.627380 1063.878540,396.133026 
	C1059.284180,396.789246 1054.642212,397.627625 1050.256714,399.093597 
	C1045.368286,400.727661 1042.316895,399.124146 1039.874268,395.060577 
	C1038.765259,393.215485 1037.442505,391.498901 1035.999023,389.453247 
z"/>
<path fill="#050303" opacity="1.000000" stroke="none" 
	d="
M670.040771,527.020264 
	C689.276367,532.558960 698.918274,517.319702 697.945923,503.549011 
	C697.644775,499.283600 696.581360,495.071991 695.888916,490.429199 
	C707.867065,498.648163 713.683960,515.158875 709.589294,528.848328 
	C706.287781,539.886169 696.581116,545.704407 685.676147,542.882385 
	C683.583618,542.340820 681.418274,540.951294 679.951782,539.345459 
	C676.478516,535.542236 673.404907,531.374084 670.040771,527.020264 
z"/>
<path fill="#070303" opacity="1.000000" stroke="none" 
	d="
M996.815125,381.429535 
	C1001.894470,379.949219 1007.089355,378.799438 1012.897949,377.513824 
	C1013.207092,369.520752 1012.548706,361.547333 1009.797974,353.405029 
	C1020.352478,362.736298 1026.202881,374.478058 1025.894043,389.051117 
	C1025.832275,391.972321 1025.296387,393.431458 1022.057495,394.102448 
	C1008.820251,396.844757 1008.842102,396.979279 1000.523254,386.515717 
	C999.287292,384.961060 998.126343,383.346741 996.815125,381.429535 
z"/>
<path fill="#0E0B0B" opacity="1.000000" stroke="none" 
	d="
M315.059204,541.600342 
	C310.987671,545.617737 306.759552,549.333130 301.803802,553.687927 
	C302.538116,545.095825 303.230713,536.992004 303.982452,528.480652 
	C307.661987,532.481567 311.282318,536.889954 315.059204,541.600342 
z"/>
<path fill="#050303" opacity="1.000000" stroke="none" 
	d="
M695.975891,489.760010 
	C695.624451,489.583099 695.275635,489.078430 694.866699,488.249023 
	C695.197266,488.426941 695.587952,488.929596 695.975891,489.760010 
z"/>
<path fill="#010101" opacity="1.000000" stroke="none" 
	d="
M385.867859,549.834473 
	C385.592102,549.969727 385.236176,549.774475 384.730957,549.246094 
	C384.983643,549.109863 385.385651,549.306946 385.867859,549.834473 
z"/>
<path fill="#040303" opacity="1.000000" stroke="none" 
	d="
M419.010773,494.231140 
	C419.337006,494.078796 419.643707,494.248718 420.015137,494.700378 
	C419.716980,494.839203 419.354126,494.696289 419.010773,494.231140 
z"/>
<path fill="#040303" opacity="1.000000" stroke="none" 
	d="
M417.936493,493.074707 
	C418.199158,492.967590 418.567749,493.169769 419.015076,493.677490 
	C418.743378,493.783325 418.392883,493.583679 417.936493,493.074707 
z"/>
<path fill="#070303" opacity="1.000000" stroke="none" 
	d="
M1009.868652,352.860596 
	C1009.681274,352.894653 1009.364136,352.677094 1009.003113,352.117981 
	C1009.219116,352.053955 1009.478943,352.331451 1009.868652,352.860596 
z"/>
<path fill="#FEFDFD" opacity="1.000000" stroke="none" 
	d="
M978.813904,932.346130 
	C977.444946,933.507019 976.180420,934.826660 974.692139,935.806152 
	C912.813049,976.531250 844.882446,999.971436 771.132324,1006.143311 
	C621.697571,1018.648865 468.874512,950.075012 379.765533,830.984619 
	C374.115326,823.433350 370.900330,815.374207 372.551300,805.879944 
	C374.725128,793.379028 383.836670,783.715881 395.688660,781.121094 
	C408.041656,778.416565 419.810669,783.547668 427.638977,793.780212 
	C441.281921,811.613220 454.282318,830.134583 469.575592,846.473389 
	C529.208496,910.183655 602.758362,948.864624 688.367126,964.900330 
	C695.396851,966.217163 702.517578,967.047668 710.400208,968.132690 
	C732.820435,971.154114 754.522949,972.088562 776.314758,970.895569 
	C795.493347,968.939148 814.773132,967.667297 833.824707,964.851746 
	C857.235779,961.391846 879.945862,954.761292 902.758789,946.191223 
	C906.116760,945.248169 908.836914,944.480408 911.606812,943.996460 
	C934.003906,940.082947 956.410339,936.222656 978.813904,932.346130 
z"/>
<path fill="#010101" opacity="1.000000" stroke="none" 
	d="
M979.087585,932.210571 
	C956.410339,936.222656 934.003906,940.082947 911.606812,943.996460 
	C908.836914,944.480408 906.116760,945.248169 903.059570,945.922119 
	C894.706970,947.180237 886.650696,948.296082 878.633911,949.645813 
	C866.900818,951.621216 856.138672,944.629272 854.126282,933.053040 
	C847.264648,893.581848 840.513000,854.091003 833.886536,814.579651 
	C831.817566,802.243225 839.287598,792.356384 851.806274,790.196106 
	C867.531616,787.482544 883.263367,784.805969 898.994751,782.128052 
	C923.411926,777.971497 947.834473,773.847229 972.247986,769.669373 
	C984.653992,767.546326 994.911743,774.495789 997.061829,786.859802 
	C1002.501587,818.140991 1007.814697,849.444214 1013.188110,880.736938 
	C1013.300110,881.389221 1013.527710,882.021606 1013.840027,883.437622 
	C1015.168213,890.741699 1016.357727,897.271545 1017.547241,903.801331 
	C1018.476135,918.586792 1012.110046,926.672974 997.564331,929.123413 
	C991.502930,930.144470 985.429321,931.093262 979.087585,932.210571 
M934.630249,872.301453 
	C941.444153,866.320129 943.095276,858.911011 939.172852,851.916321 
	C935.628174,845.595154 928.191101,842.540222 921.270020,844.562317 
	C912.393494,847.155762 907.699829,856.487427 910.939819,865.100220 
	C914.424255,874.362671 924.197754,877.605591 934.630249,872.301453 
M878.422546,900.169983 
	C876.119751,911.220581 881.785522,920.042542 891.752075,920.924988 
	C899.739014,921.632141 906.759766,916.424683 908.529358,908.480957 
	C910.197266,900.993347 905.860413,893.346191 898.432251,890.677429 
	C890.563538,887.850403 883.002808,891.233643 878.422546,900.169983 
M960.910828,828.615845 
	C967.778076,827.197510 972.202942,823.064758 973.664978,816.261963 
	C974.951904,810.273743 972.969177,805.091187 968.286316,801.121338 
	C963.164978,796.780029 955.326904,796.430481 949.737732,800.122498 
	C944.067200,803.868225 941.409424,811.095215 943.313599,817.591370 
	C945.416321,824.764832 951.530640,828.828918 960.910828,828.615845 
z"/>
<path fill="#010101" opacity="1.000000" stroke="none" 
	d="
M776.444946,970.519897 
	C754.522949,972.088562 732.820435,971.154114 710.854004,968.060303 
	C696.210327,961.654846 681.932922,955.313904 667.618225,949.058350 
	C657.708557,944.727905 647.728394,940.558716 637.814026,936.238892 
	C626.318176,931.229797 621.694641,920.151184 626.604431,908.649292 
	C641.693970,873.299988 656.861877,837.983704 672.149902,802.719849 
	C677.636902,790.063416 688.524414,786.137573 701.307800,791.645081 
	C736.147644,806.655334 771.022339,821.584961 805.831421,836.666077 
	C809.757019,838.366882 813.796265,840.311401 817.004822,843.053284 
	C823.319824,848.450134 824.878357,857.218567 821.340210,865.512878 
	C807.500183,897.957947 793.526550,930.346069 779.611816,962.759399 
	C778.562073,965.204834 777.585632,967.681885 776.444946,970.519897 
M693.786011,822.165100 
	C687.184082,828.071655 685.470947,834.723206 688.763916,841.664551 
	C691.650513,847.749268 698.164612,851.415222 704.629333,850.487854 
	C711.366272,849.521423 715.862488,845.725342 717.864502,839.257751 
	C719.734131,833.217651 717.573059,826.529053 712.549011,822.738892 
	C706.788818,818.393494 700.685669,818.049988 693.786011,822.165100 
M790.944275,860.876770 
	C786.580261,852.237488 779.035461,848.697449 771.040100,851.537903 
	C763.125854,854.349365 758.836975,862.801025 761.243530,870.842590 
	C763.603333,878.728210 772.225159,883.559937 780.114685,881.418030 
	C788.871094,879.040771 793.328430,871.057556 790.944275,860.876770 
M730.980591,932.669128 
	C727.684021,941.293213 729.866699,948.848145 736.872192,953.062317 
	C743.176147,956.854431 751.439453,955.668213 756.426208,950.255188 
	C762.494324,943.668213 761.804871,933.334351 754.917480,927.639771 
	C747.412415,921.434509 737.632446,923.233948 730.980591,932.669128 
M682.219299,919.754395 
	C687.837097,913.171143 688.677917,905.969177 684.555481,899.744263 
	C680.668945,893.875488 673.275757,891.250000 666.639893,893.538757 
	C660.412170,895.686890 656.739624,900.143127 656.035767,906.670715 
	C655.330994,913.205627 657.951599,918.440918 663.610657,921.765564 
	C669.862671,925.438660 675.975769,924.715332 682.219299,919.754395 
z"/>
<path fill="#040303" opacity="1.000000" stroke="none" 
	d="
M414.773071,693.123657 
	C430.388580,699.944763 445.115509,696.057861 459.289673,688.732422 
	C471.551117,682.395508 481.993896,673.675476 490.170441,662.002930 
	C490.591888,662.499023 490.905243,662.760437 491.084229,663.093933 
	C498.479095,676.873901 510.946503,683.163086 526.407288,680.455139 
	C548.539917,676.578674 565.527405,664.522461 578.781677,646.759277 
	C579.670105,645.568665 580.468567,644.310913 581.393066,642.961548 
	C594.513489,663.956787 614.272156,665.556824 635.564819,661.505859 
	C665.819092,655.749878 688.469727,638.390381 706.094849,613.782959 
	C706.965454,612.567444 707.814331,611.335693 708.716187,610.143982 
	C708.896484,609.905823 709.272339,609.815552 708.905640,610.018982 
	C712.301575,616.061218 715.688110,622.086914 719.212158,628.431641 
	C703.376038,651.312805 683.062988,668.050964 655.931641,675.328796 
	C649.544128,677.042236 642.914429,678.340759 636.330200,678.738525 
	C618.972107,679.786865 604.043701,674.960022 594.936523,659.760437 
	C587.855286,666.746277 581.229309,674.167847 573.689392,680.501404 
	C563.878784,688.742615 552.452698,694.190430 539.583557,696.007446 
	C523.585632,698.266174 511.075500,693.242432 504.309906,679.816101 
	C498.638245,684.619568 492.750671,689.888184 486.568024,694.784119 
	C473.215057,705.357971 458.575531,713.020569 440.932831,711.950562 
	C428.654999,711.205750 419.578796,705.199951 414.773071,693.123657 
z"/>
<path fill="#FDF8F8" opacity="1.000000" stroke="none" 
	d="
M1017.742676,903.502930 
	C1016.357727,897.271545 1015.168213,890.741699 1014.010254,883.824219 
	C1036.725830,865.999023 1056.980347,846.023071 1075.316772,824.122620 
	C1111.805786,780.541321 1138.257690,731.473572 1154.986206,677.156982 
	C1155.360840,675.940308 1155.773193,674.735229 1157.038696,673.685608 
	C1156.906494,675.022034 1156.935913,676.398254 1156.618774,677.689331 
	C1134.506104,767.686401 1088.256714,842.848022 1017.742676,903.502930 
z"/>
<path fill="#040303" opacity="1.000000" stroke="none" 
	d="
M987.045410,589.178955 
	C1025.703369,602.862183 1056.390015,587.676575 1083.918091,562.114685 
	C1090.790039,555.733582 1096.230713,547.811035 1101.958740,541.035095 
	C1105.192749,546.460632 1108.681885,552.314148 1112.342896,558.478027 
	C1094.846558,584.216003 1071.949829,602.131287 1040.994141,608.348511 
	C1029.437866,610.669556 1017.882507,611.240479 1006.575317,606.969727 
	C997.835083,603.668457 991.057922,598.105591 987.045410,589.178955 
z"/>
<path fill="#050404" opacity="1.000000" stroke="none" 
	d="
M1119.887207,565.304688 
	C1137.344604,574.178101 1155.059692,571.861206 1172.746704,566.381042 
	C1196.671509,558.968079 1214.983521,543.839783 1229.789307,524.062683 
	C1231.339233,521.992432 1232.822510,519.872253 1235.131714,518.030640 
	C1234.133057,529.360229 1233.134521,540.689758 1232.031738,552.406738 
	C1219.545898,564.897522 1205.907959,575.150940 1189.321533,580.788940 
	C1174.520874,585.820007 1159.465332,589.187378 1143.809814,584.970703 
	C1133.021606,582.065125 1124.569580,576.099854 1119.887207,565.304688 
z"/>
<path fill="#050303" opacity="1.000000" stroke="none" 
	d="
M726.446289,635.297119 
	C750.059937,649.858337 780.784912,638.465576 794.231628,621.450195 
	C799.968994,614.190186 805.208557,606.536743 809.937317,600.069946 
	C813.293884,605.072388 817.081787,610.717651 821.032104,616.669067 
	C813.535522,630.183838 804.838196,642.443970 791.138367,650.197388 
	C772.672424,660.648315 750.523499,660.026855 736.363770,647.994019 
	C732.427673,644.649048 729.793396,639.772217 726.446289,635.297119 
z"/>
<path fill="#070606" opacity="1.000000" stroke="none" 
	d="
M825.762756,620.351318 
	C841.570740,626.596375 856.172180,622.115662 869.722351,613.747681 
	C877.779846,608.771790 884.790833,602.101440 892.264343,596.199219 
	C891.875610,601.068665 891.529846,606.472290 890.931458,611.847717 
	C890.830811,612.752014 889.795532,613.781189 888.926208,614.336792 
	C876.356567,622.371155 863.741577,630.334351 850.942261,638.599670 
	C838.956177,637.616272 830.313110,632.036499 825.762756,620.351318 
z"/>
<path fill="#040303" opacity="1.000000" stroke="none" 
	d="
M986.103394,587.964111 
	C986.425110,587.849365 986.853210,588.039795 987.228027,588.580200 
	C986.853088,588.709900 986.531433,588.489563 986.103394,587.964111 
z"/>
<path fill="#050404" opacity="1.000000" stroke="none" 
	d="
M1119.160156,564.397217 
	C1119.343994,564.203857 1119.624268,564.323792 1119.949951,564.814087 
	C1119.758301,564.958191 1119.512085,564.800232 1119.160156,564.397217 
z"/>
<path fill="#BE181D" opacity="1.000000" stroke="none" 
	d="
M811.960205,489.165344 
	C810.481873,508.047119 809.051819,526.932861 807.503540,545.808899 
	C806.797485,554.417542 806.219238,563.061584 804.931946,571.591309 
	C803.365112,581.973694 798.368835,590.697144 790.142090,597.368103 
	C785.326172,601.273254 779.868347,603.422852 773.172607,601.940247 
	C769.924744,587.487488 770.466492,573.590027 772.034790,559.694397 
	C774.173950,540.740417 778.655090,522.456604 788.525696,505.887329 
	C793.848877,496.951569 801.175293,490.570648 811.960205,489.165344 
z"/>
<path fill="#040303" opacity="1.000000" stroke="none" 
	d="
M812.080811,488.789154 
	C801.175293,490.570648 793.848877,496.951569 788.525696,505.887329 
	C778.655090,522.456604 774.173950,540.740417 772.034790,559.694397 
	C770.466492,573.590027 769.924744,587.487488 772.855469,601.719666 
	C766.632202,601.641846 763.620239,597.530396 761.833008,592.139404 
	C757.993347,580.557373 757.513672,568.581726 758.207092,556.569336 
	C759.345459,536.846497 762.380127,517.429932 771.062927,499.460876 
	C774.130981,493.111481 777.985229,486.767456 782.877869,481.796295 
	C786.586853,478.027802 792.257446,475.279144 797.504700,474.130707 
	C807.483521,471.946686 813.383484,478.237518 812.080811,488.789154 
z"/>
<path fill="#050505" opacity="1.000000" stroke="none" 
	d="
M868.026489,677.673645 
	C859.055298,677.346741 854.568237,673.075012 855.277405,664.365234 
	C855.642517,659.880737 856.775940,655.015320 859.050598,651.212219 
	C866.157837,639.329102 877.741028,632.508301 889.968872,625.245972 
	C889.051514,634.261719 888.232483,642.311035 886.951050,650.882324 
	C877.676514,658.292603 869.412048,665.565857 868.026489,677.673645 
z"/>
<path fill="#BC1A1F" opacity="1.000000" stroke="none" 
	d="
M868.400085,677.756714 
	C869.412048,665.565857 877.676514,658.292603 886.785583,651.257385 
	C885.533203,656.832947 884.508484,662.768860 882.290344,668.219055 
	C879.965393,673.931702 875.190735,677.314575 868.400085,677.756714 
z"/>
<path fill="#BF191E" opacity="1.000000" stroke="none" 
	d="
M1033.396606,558.941040 
	C1032.346802,553.501160 1031.812256,548.207275 1030.952393,542.966675 
	C1030.212646,538.458069 1031.642090,536.398438 1036.273315,534.860229 
	C1058.036011,527.632019 1076.290405,515.079956 1089.212036,495.982117 
	C1094.355347,488.380585 1097.485718,479.416992 1101.797119,470.772308 
	C1101.281128,476.716339 1100.243408,482.942688 1099.783813,489.211426 
	C1099.189209,497.319824 1098.400024,505.505676 1098.936523,513.575623 
	C1099.348877,519.778320 1097.323608,524.155396 1093.663818,528.795471 
	C1080.715576,545.211853 1065.027710,556.919067 1043.655518,559.339172 
	C1040.410889,559.706543 1037.068115,559.208008 1033.396606,558.941040 
z"/>
<path fill="#050404" opacity="1.000000" stroke="none" 
	d="
M1032.770752,497.213989 
	C1030.050049,498.767426 1027.452515,500.623352 1024.576294,501.795135 
	C1021.231445,503.157806 1018.663940,501.811981 1019.045044,497.985840 
	C1021.301758,475.327240 1025.779175,453.253448 1038.620361,433.878845 
	C1040.912964,430.419830 1044.480591,427.429871 1048.095581,425.306122 
	C1054.480591,421.554840 1059.386108,423.803192 1061.500244,430.877472 
	C1062.300659,433.556061 1062.487915,436.417847 1062.570068,439.702148 
	C1058.647461,443.129059 1054.196777,445.432983 1051.731934,449.079346 
	C1041.880859,463.652313 1036.332764,480.078827 1032.770752,497.213989 
z"/>
<path fill="#050404" opacity="1.000000" stroke="none" 
	d="
M1161.799316,476.244141 
	C1158.711548,477.709106 1155.623657,479.174072 1152.535889,480.639069 
	C1151.981934,480.342987 1151.427856,480.046936 1150.873901,479.750885 
	C1152.852173,468.550629 1153.938965,457.095123 1157.053345,446.220184 
	C1160.321167,434.809174 1164.899414,423.639954 1170.186279,413.001892 
	C1172.512939,408.320129 1177.529175,404.420044 1182.191650,401.597778 
	C1187.724365,398.248657 1192.146851,400.550964 1194.183960,406.742401 
	C1195.158691,409.705200 1195.393921,412.911438 1195.556885,416.481781 
	C1187.770874,420.021454 1183.356934,426.100647 1180.151367,432.887512 
	C1174.142700,445.609283 1168.641724,458.571747 1163.005493,471.467255 
	C1162.356689,472.951721 1162.189697,474.646759 1161.799316,476.244141 
z"/>
<path fill="#BE191E" opacity="1.000000" stroke="none" 
	d="
M1162.169189,476.175415 
	C1162.189697,474.646759 1162.356689,472.951721 1163.005493,471.467255 
	C1168.641724,458.571747 1174.142700,445.609283 1180.151367,432.887512 
	C1183.356934,426.100647 1187.770874,420.021454 1195.494873,416.890198 
	C1196.288086,443.072113 1184.187866,462.271301 1162.169189,476.175415 
z"/>
<path fill="#BE191E" opacity="1.000000" stroke="none" 
	d="
M1033.128784,497.122284 
	C1036.332764,480.078827 1041.880859,463.652313 1051.731934,449.079346 
	C1054.196777,445.432983 1058.647461,443.129059 1062.507446,440.114807 
	C1063.583862,464.447021 1052.471558,482.764771 1033.128784,497.122284 
z"/>
<path fill="#BE181D" opacity="1.000000" stroke="none" 
	d="
M340.979614,575.987793 
	C341.822754,580.036926 343.092041,584.049744 343.439819,588.140991 
	C345.694916,614.667786 344.459900,640.771057 332.837677,665.395691 
	C327.241730,677.252197 318.905701,686.044250 305.143738,688.410767 
	C307.106018,659.302124 309.324432,630.671448 311.822937,602.065186 
	C313.055084,587.958374 326.946503,575.786499 340.979614,575.987793 
z"/>
<path fill="#050303" opacity="1.000000" stroke="none" 
	d="
M340.988525,575.614746 
	C326.946503,575.786499 313.055084,587.958374 311.822937,602.065186 
	C309.324432,630.671448 307.106018,659.302124 304.754211,688.373230 
	C302.433411,688.906860 300.069611,689.361938 297.840240,688.996643 
	C293.015045,688.205994 290.798431,685.128845 291.196747,680.246521 
	C293.793762,648.414429 296.363617,616.580017 299.069580,584.757141 
	C299.948395,574.422058 314.005157,560.962158 324.401093,560.238953 
	C329.418762,559.889954 333.693054,561.713928 336.460754,565.891663 
	C338.356995,568.753906 339.511414,572.107666 340.988525,575.614746 
z"/>
<path fill="#FAFAFA" opacity="1.000000" stroke="none" 
	d="
M934.331604,872.532104 
	C924.197754,877.605591 914.424255,874.362671 910.939819,865.100220 
	C907.699829,856.487427 912.393494,847.155762 921.270020,844.562317 
	C928.191101,842.540222 935.628174,845.595154 939.172852,851.916321 
	C943.095276,858.911011 941.444153,866.320129 934.331604,872.532104 
z"/>
<path fill="#FAFAFA" opacity="1.000000" stroke="none" 
	d="
M878.590454,899.825562 
	C883.002808,891.233643 890.563538,887.850403 898.432251,890.677429 
	C905.860413,893.346191 910.197266,900.993347 908.529358,908.480957 
	C906.759766,916.424683 899.739014,921.632141 891.752075,920.924988 
	C881.785522,920.042542 876.119751,911.220581 878.590454,899.825562 
z"/>
<path fill="#FBFBFB" opacity="1.000000" stroke="none" 
	d="
M960.510681,828.685852 
	C951.530640,828.828918 945.416321,824.764832 943.313599,817.591370 
	C941.409424,811.095215 944.067200,803.868225 949.737732,800.122498 
	C955.326904,796.430481 963.164978,796.780029 968.286316,801.121338 
	C972.969177,805.091187 974.951904,810.273743 973.664978,816.261963 
	C972.202942,823.064758 967.778076,827.197510 960.510681,828.685852 
z"/>
<path fill="#FAFAFA" opacity="1.000000" stroke="none" 
	d="
M694.113159,821.986633 
	C700.685669,818.049988 706.788818,818.393494 712.549011,822.738892 
	C717.573059,826.529053 719.734131,833.217651 717.864502,839.257751 
	C715.862488,845.725342 711.366272,849.521423 704.629333,850.487854 
	C698.164612,851.415222 691.650513,847.749268 688.763916,841.664551 
	C685.470947,834.723206 687.184082,828.071655 694.113159,821.986633 
z"/>
<path fill="#FAFAFA" opacity="1.000000" stroke="none" 
	d="
M791.049561,861.260864 
	C793.328430,871.057556 788.871094,879.040771 780.114685,881.418030 
	C772.225159,883.559937 763.603333,878.728210 761.243530,870.842590 
	C758.836975,862.801025 763.125854,854.349365 771.040100,851.537903 
	C779.035461,848.697449 786.580261,852.237488 791.049561,861.260864 
z"/>
<path fill="#FAFAFA" opacity="1.000000" stroke="none" 
	d="
M731.139771,932.327332 
	C737.632446,923.233948 747.412415,921.434509 754.917480,927.639771 
	C761.804871,933.334351 762.494324,943.668213 756.426208,950.255188 
	C751.439453,955.668213 743.176147,956.854431 736.872192,953.062317 
	C729.866699,948.848145 727.684021,941.293213 731.139771,932.327332 
z"/>
<path fill="#FBFBFB" opacity="1.000000" stroke="none" 
	d="
M681.936829,919.994751 
	C675.975769,924.715332 669.862671,925.438660 663.610657,921.765564 
	C657.951599,918.440918 655.330994,913.205627 656.035767,906.670715 
	C656.739624,900.143127 660.412170,895.686890 666.639893,893.538757 
	C673.275757,891.250000 680.668945,893.875488 684.555481,899.744263 
	C688.677917,905.969177 687.837097,913.171143 681.936829,919.994751 
z"/>
</svg>